<?xml version="1.0" encoding="utf-8"?>
<!-- Generator: Adobe Illustrator 24.1.3, SVG Export Plug-In . SVG Version: 6.00 Build 0)  -->
<svg version="1.1" id="Layer_1" xmlns="http://www.w3.org/2000/svg" xmlns:xlink="http://www.w3.org/1999/xlink" x="0px" y="0px"
	 viewBox="0 0 32 32" style="enable-background:new 0 0 32 32;" xml:space="preserve">
<style type="text/css">
	.Black{fill:#737374;}
	.Yellow{fill:#FCB01B;}
	.Green{fill:#129C49;}
	.Blue{fill:#387CB7;}
	.Red{fill:#D02127;}
	.White{fill:#FFFFFF;}
	.st0{opacity:0.5;}
	.st1{opacity:0.75;}
	.st2{opacity:0.25;}
	.st3{display:none;fill:#737374;}
</style>
<path class="Blue" d="M16,2C8.3,2,2,8.3,2,16s6.3,14,14,14s14-6.3,14-14S23.7,2,16,2z M16,24c-1.1,0-2-0.9-2-2s0.9-2,2-2s2,0.9,2,2
	S17.1,24,16,24z M20.7,13.3c-0.2,0.4-0.4,0.7-0.6,1c-0.3,0.3-0.5,0.5-0.8,0.7s-0.6,0.4-0.9,0.6c-0.3,0.2-0.5,0.4-0.7,0.7
	c-0.2,0.3-0.3,0.6-0.4,1V18h-2.7v-0.9c0-0.6,0.2-1,0.3-1.4c0.2-0.4,0.4-0.7,0.6-1c0.2-0.3,0.5-0.5,0.8-0.7s0.5-0.4,0.8-0.6
	c0.2-0.2,0.4-0.4,0.6-0.6c0.1-0.2,0.2-0.5,0.2-0.9c0-0.6-0.2-1-0.5-1.3s-0.7-0.4-1.3-0.4c-0.4,0-0.7,0.1-0.9,0.2
	c-0.3,0.1-0.5,0.3-0.7,0.5s-0.3,0.5-0.4,0.8C14,12.1,14,12.7,14,13h-3c0-0.7,0.1-1.6,0.4-2.1c0.2-0.6,0.6-1.1,1-1.5s0.9-0.8,1.5-1
	s1.3-0.4,2-0.4c1,0,1.8,0.1,2.4,0.4s1.2,0.6,1.6,0.9c0.4,0.4,0.7,0.8,0.8,1.2s0.3,0.8,0.3,1.2C21,12.4,20.9,12.9,20.7,13.3z"/>
</svg>
